<svg preserveAspectRatio="none" overflow="visible" style="display: block;" width="407.8" height="372.902" viewBox="0 0 407.8 372.902" fill="none" xmlns="http://www.w3.org/2000/svg">
<g id="&#230;&#161;&#134;">
<g id="Vector 576" filter="url(#filter0_dii_0_26)">
<path d="M17.5615 35.9365C18.7594 19.8551 26.5745 17.7176 30.9001 17.7176C34.893 5.44498 43.6817 2.25717 47.0091 3.13883H361.449C371.032 3.13883 375.091 13.0134 375.923 17.9507C384.708 16.6811 388.235 26.9436 388.9 32.2335V308.369C388.102 318.102 379.916 323.709 375.923 325.296C370.732 335.876 364.111 338.169 361.449 337.992H47.0091C36.6276 335.03 33.034 327.941 32.5349 324.767C20.5562 321.382 17.5615 311.366 17.5615 306.782C17.0624 223.2 16.3637 52.0179 17.5615 35.9365Z" fill="#F2E6D1" shape-rendering="crispEdges"/>
<path d="M17.5615 35.9365C18.7594 19.8551 26.5745 17.7176 30.9001 17.7176C34.893 5.44498 43.6817 2.25717 47.0091 3.13883H361.449C371.032 3.13883 375.091 13.0134 375.923 17.9507C384.708 16.6811 388.235 26.9436 388.9 32.2335V308.369C388.102 318.102 379.916 323.709 375.923 325.296C370.732 335.876 364.111 338.169 361.449 337.992H47.0091C36.6276 335.03 33.034 327.941 32.5349 324.767C20.5562 321.382 17.5615 311.366 17.5615 306.782C17.0624 223.2 16.3637 52.0179 17.5615 35.9365Z" stroke="#E7DCAE" stroke-opacity="0.996078" stroke-width="6" shape-rendering="crispEdges"/>
</g>
<g id="Vector 577" filter="url(#filter1_ii_0_26)">
<path d="M36.494 50.3184C37.5695 36.0143 45.4761 34.0225 49.3598 34.0225C51.8524 22.5189 59.9459 20.3614 62.9334 21.1456H345.253C353.857 21.1456 357.502 29.9288 358.249 34.3204C366.136 33.1911 369.303 42.3194 369.9 47.0247V292.641C369.183 301.299 365.4 306.451 359.9 306.451C358.051 317.744 347.643 319.147 345.253 318.99H62.9334C53.9001 318.99 50.9001 318.99 47.8643 305.403C37.1093 302.392 36.494 295.307 36.494 291.229C36.0458 216.886 35.4185 64.6225 36.494 50.3184Z" stroke="#E7DCAE" stroke-opacity="0.996078" stroke-width="2"/>
</g>
</g>
<defs>
<filter id="filter0_dii_0_26" x="2.38419e-07" y="-4" width="407.8" height="376.902" filterUnits="userSpaceOnUse" color-interpolation-filters="sRGB">
<feFlood flood-opacity="0" result="BackgroundImageFix"/>
<feColorMatrix in="SourceAlpha" type="matrix" values="0 0 0 0 0 0 0 0 0 0 0 0 0 0 0 0 0 0 127 0" result="hardAlpha"/>
<feOffset dx="1" dy="17"/>
<feGaussianBlur stdDeviation="7.45"/>
<feComposite in2="hardAlpha" operator="out"/>
<feColorMatrix type="matrix" values="0 0 0 0 0 0 0 0 0 0 0 0 0 0 0 0 0 0 0.25 0"/>
<feBlend mode="normal" in2="BackgroundImageFix" result="effect1_dropShadow_0_26"/>
<feBlend mode="normal" in="SourceGraphic" in2="effect1_dropShadow_0_26" result="shape"/>
<feColorMatrix in="SourceAlpha" type="matrix" values="0 0 0 0 0 0 0 0 0 0 0 0 0 0 0 0 0 0 127 0" result="hardAlpha"/>
<feOffset dx="9" dy="9"/>
<feGaussianBlur stdDeviation="2"/>
<feComposite in2="hardAlpha" operator="arithmetic" k2="-1" k3="1"/>
<feColorMatrix type="matrix" values="0 0 0 0 0.8 0 0 0 0 0.713726 0 0 0 0 0.517647 0 0 0 0.996078 0"/>
<feBlend mode="normal" in2="shape" result="effect2_innerShadow_0_26"/>
<feColorMatrix in="SourceAlpha" type="matrix" values="0 0 0 0 0 0 0 0 0 0 0 0 0 0 0 0 0 0 127 0" result="hardAlpha"/>
<feOffset dx="-9" dy="-9"/>
<feGaussianBlur stdDeviation="2"/>
<feComposite in2="hardAlpha" operator="arithmetic" k2="-1" k3="1"/>
<feColorMatrix type="matrix" values="0 0 0 0 0.831373 0 0 0 0 0.756863 0 0 0 0 0.576471 0 0 0 1 0"/>
<feBlend mode="normal" in2="effect2_innerShadow_0_26" result="effect3_innerShadow_0_26"/>
</filter>
<filter id="filter1_ii_0_26" x="30.9001" y="15.9994" width="344" height="308.002" filterUnits="userSpaceOnUse" color-interpolation-filters="sRGB">
<feFlood flood-opacity="0" result="BackgroundImageFix"/>
<feBlend mode="normal" in="SourceGraphic" in2="BackgroundImageFix" result="shape"/>
<feColorMatrix in="SourceAlpha" type="matrix" values="0 0 0 0 0 0 0 0 0 0 0 0 0 0 0 0 0 0 127 0" result="hardAlpha"/>
<feOffset dx="9" dy="9"/>
<feGaussianBlur stdDeviation="2"/>
<feComposite in2="hardAlpha" operator="arithmetic" k2="-1" k3="1"/>
<feColorMatrix type="matrix" values="0 0 0 0 0.8 0 0 0 0 0.713726 0 0 0 0 0.517647 0 0 0 0.996078 0"/>
<feBlend mode="normal" in2="shape" result="effect1_innerShadow_0_26"/>
<feColorMatrix in="SourceAlpha" type="matrix" values="0 0 0 0 0 0 0 0 0 0 0 0 0 0 0 0 0 0 127 0" result="hardAlpha"/>
<feOffset dx="-9" dy="-9"/>
<feGaussianBlur stdDeviation="2"/>
<feComposite in2="hardAlpha" operator="arithmetic" k2="-1" k3="1"/>
<feColorMatrix type="matrix" values="0 0 0 0 0.831373 0 0 0 0 0.756863 0 0 0 0 0.576471 0 0 0 1 0"/>
<feBlend mode="normal" in2="effect1_innerShadow_0_26" result="effect2_innerShadow_0_26"/>
</filter>
</defs>
</svg>
