<svg preserveAspectRatio="none" overflow="visible" style="display: block;" width="310" height="54" viewBox="0 0 310 54" fill="none" xmlns="http://www.w3.org/2000/svg">
<g id="Group 166" filter="url(#filter0_d_0_29)">
<path id="Vector 578" d="M22.6729 0.532348C16.2124 0.532396 14.1588 6.46829 14.1588 8.99485C11.5124 8.99485 3.99999 10.383 4 22.6383C4.00001 32.6168 10.5108 37.2924 14.1588 37.2924C14.1588 42.8509 19.5257 45.0083 21.6713 45C108.148 44.6631 282.023 45 286.109 45C290.975 45 295.625 41.3349 295.625 37.9256C301.993 37.9256 306 32.6168 306 21.1224C306 11.899 300.491 8.99485 295.625 8.99485C295.625 3.4364 287.97 0.0347404 284.106 0.0270349C199.633 -0.141403 29.5423 0.532298 22.6729 0.532348Z" fill="url(#paint0_linear_0_29)"/>
<path id="Vector 579" d="M27.4769 4.43771C21.2509 4.43775 19.2719 9.31837 19.2719 11.3958C16.7216 11.3958 9.48184 12.5371 9.48185 22.6137C9.48186 30.8182 15.7563 34.6626 19.2719 34.6626C19.2719 39.2329 24.4439 41.0069 26.5116 41C109.849 40.723 277.412 41 281.349 41C286.039 41 290.52 37.9865 290.52 35.1833C296.657 35.1833 300.518 30.8183 300.518 21.3673C300.518 13.7836 295.209 11.3958 290.52 11.3958C290.52 6.82549 283.143 4.02856 279.419 4.02223C198.012 3.88374 34.0969 4.43767 27.4769 4.43771Z" fill="url(#paint1_linear_0_29)" stroke="url(#paint2_linear_0_29)"/>
</g>
<defs>
<filter id="filter0_d_0_29" x="0" y="1.62039e-09" width="310" height="54" filterUnits="userSpaceOnUse" color-interpolation-filters="sRGB">
<feFlood flood-opacity="0" result="BackgroundImageFix"/>
<feColorMatrix in="SourceAlpha" type="matrix" values="0 0 0 0 0 0 0 0 0 0 0 0 0 0 0 0 0 0 127 0" result="hardAlpha"/>
<feOffset dy="5"/>
<feGaussianBlur stdDeviation="2"/>
<feComposite in2="hardAlpha" operator="out"/>
<feColorMatrix type="matrix" values="0 0 0 0 0.862745 0 0 0 0 0.8 0 0 0 0 0.631373 0 0 0 1 0"/>
<feBlend mode="normal" in2="BackgroundImageFix" result="effect1_dropShadow_0_29"/>
<feBlend mode="normal" in="SourceGraphic" in2="effect1_dropShadow_0_29" result="shape"/>
</filter>
<linearGradient id="paint0_linear_0_29" x1="155" y1="0" x2="155" y2="33" gradientUnits="userSpaceOnUse">
<stop stop-color="#AACC99"/>
<stop offset="1" stop-color="#546942"/>
</linearGradient>
<linearGradient id="paint1_linear_0_29" x1="155" y1="41" x2="155" y2="4" gradientUnits="userSpaceOnUse">
<stop stop-color="#527F50"/>
<stop offset="1" stop-color="#92B57A"/>
</linearGradient>
<linearGradient id="paint2_linear_0_29" x1="9.48185" y1="22.5" x2="300.518" y2="22.5" gradientUnits="userSpaceOnUse">
<stop stop-color="#DCCCA1"/>
<stop offset="1" stop-color="#FAF4D8"/>
</linearGradient>
</defs>
</svg>
